<?xml version="1.0" encoding="utf-8"?>
<!-- Generator: Adobe Illustrator 23.0.3, SVG Export Plug-In . SVG Version: 6.00 Build 0)  -->
<svg version="1.1" id="Camada_1" xmlns="http://www.w3.org/2000/svg" xmlns:xlink="http://www.w3.org/1999/xlink" x="0px" y="0px"
	 viewBox="0 0 400 499" style="enable-background:new 0 0 400 499;" xml:space="preserve">
<style type="text/css">
	.st0{opacity:0.2;fill:#150023;}
	.st1{fill:#D4F1FD;}
	.st2{fill:#141414;}
	.st3{fill:#313131;}
	.st4{fill:#FFF422;}
	.st5{fill:#A82929;}
	.st6{fill:#BCB8B1;}
	.st7{fill:#20203A;}
	.st8{fill:#C5C4F7;}
	.st9{fill:url(#SVGID_1_);}
	.st10{fill:#7F7FD3;}
	.st11{fill:#FFFFFF;}
	.st12{fill:#494C4D;}
	.st13{fill:#DDBC96;}
	.st14{fill:#F4DAB7;}
	.st15{fill:#6C5C32;}
	.st16{fill:#BA8D61;}
	.st17{fill:#1D1611;}
	.st18{fill:#67372C;}
	.st19{fill:#C68E87;}
	.st20{fill:#D4D4FC;}
	.st21{fill:#454999;}
	.st22{fill:#6161C1;}
	.st23{fill:#473C20;}
	.st24{fill:#382F20;}
	.st25{fill:#292B2C;}
	.st26{fill:#686B6B;}
	.st27{fill:#E3E3E3;}
	.st28{fill:#1B1B1B;}
	.st29{fill:#9EA1A1;}
</style>
<path class="st0" d="M47,328.5c0,0,0-14.3,14.8-14.1c0,0,0.5-18.8,21.1-18.4s24.5,11.6,25.7,16.3c0,0,11.4-27.1,46.7-21.2
	c35.3,5.9,28.5,30.2,28.5,30.2s28.5,6.4,9.7,10.4c-18.8,4-44.5,0-44.5,0s-30.1,14.4-48.4,5.8c0,0-38.8,5.9-46.2-1.6
	c0,0-27.9,5.9-32.5,0C17.3,330.1,39,328.2,47,328.5z"/>
<path class="st0" d="M218.9,236.3c0,0,0-14.3,14.8-14.1c0,0,0.5-18.8,21.1-18.4c20.5,0.4,24.5,11.6,25.7,16.3
	c0,0,11.4-27.1,46.7-21.2c35.3,5.9,28.5,30.2,28.5,30.2s28.5,6.4,9.7,10.4c-18.8,4-44.5,0-44.5,0s-30.1,14.4-48.4,5.8
	c0,0-38.8,5.9-46.2-1.6c0,0-27.9,5.9-32.5,0C189.3,237.8,211,235.9,218.9,236.3z"/>
<path class="st0" d="M101.9,123.3c0,0,0-14.3,14.8-14.1c0,0,0.5-18.8,21.1-18.4c20.5,0.4,24.5,11.6,25.7,16.3
	c0,0,11.4-27.1,46.7-21.2s28.5,30.2,28.5,30.2s28.5,6.4,9.7,10.4s-44.5,0-44.5,0s-30.1,14.4-48.4,5.8c0,0-38.8,5.9-46.2-1.6
	c0,0-27.9,5.9-32.5,0C72.3,124.8,94,122.9,101.9,123.3z"/>
<g>
	
		<image style="overflow:visible;opacity:0.1;" width="411" height="558" xlink:href="7AACC4CC.png"  transform="matrix(1 0 0 1 2 -36)">
	</image>
	<g>
		<g>
			<g>
				<g>
					<path class="st1" d="M58.7,195.2c0,0,0.2,6.2,3,13.1c0,0,1.6,2.2,8.8,1.2c7.5-2.6,20.1-9.9,20.1-9.9l-1.6-2.9
						c0,0-11.8,5.8-15.7,5.3c-1.2-1.1-1.9-3.6-1.9-6.2L58.7,195.2z"/>
					<path class="st2" d="M62.2,191.2c0,0-3.4-19.6-4-21.5c0,0,5.3-3.5,11.2-1.9c0,0,0.3,20.1-0.2,23.3
						C69.1,191,65.6,190.5,62.2,191.2z"/>
					<path class="st3" d="M58,196.9c0,0-1-4.3,0.9-6.8c0.6-0.7,11.4-0.3,13.5,0.8c0,0,0.7,6-0.1,6.6C72.4,197.6,59.3,198,58,196.9z"
						/>
				</g>
				<g>
					<path class="st4" d="M128.1,185.7c0,0,0.1,14.7,0,15.7c-0.1,1,7.4-3.7,7.4-3.7s3.3,13.2,4.1,15.5c0,0,3.3-5.8,5.6-8.4
						c0,0,19.5,20.4,25,23.6c0,0,1.4-38-0.6-39.8c0,0,4.3-0.6,6-1c1.7-0.4-11.4-9.6-11.4-9.6s6.6-2.9,8.7-4.4l-12-7.4
						C161,166.4,133.9,181.5,128.1,185.7z"/>
					<path class="st5" d="M118.9,95.3c-6.7-4-12.9-3.4-20,1.5c-5,3.4-6.5,9.3-5.9,16.3C100.9,110.8,111.3,105.9,118.9,95.3z"/>
					<path class="st6" d="M118.9,95.3c-7.6,10.5-18,15.5-25.9,17.8c2.3,24.6,31.2,63.8,31.2,63.8c29.8-10,37.5-23.8,37.5-23.8
						C142,120.7,129.8,101.9,118.9,95.3z"/>
					<path class="st7" d="M122.9,174.3l-0.4,2.7c0,0,5.3,8.4,5.8,9.2c0,0,32.8-8.7,41.4-25.7c0,0-5.2-8.4-7-8.7
						c-1.8-0.3-1.8-0.3-1.8-0.3S148.3,165.8,122.9,174.3z"/>
					<path class="st5" d="M116.4,166.2c0,0,19-5.4,39.8-23.6l-3.7-7c0,0-11.7,11.4-39.9,23.4L116.4,166.2z"/>
				</g>
				<path class="st8" d="M248.9,288.9c-14.7,4-31.6-6.5-24.6-19.2c0,0-24.2,7.7-25.3-18.5c0,0-18.6,0-12.9-16.9
					c0,0-26.6-11.7-15.8-30.8c0,0,1.3-12.5,25.5,4.1c0,0,31.3-38,35,20.3c9.2-10.5,18.2,2.6,13.5,10.2c20-6.8,34.8,15.2,22.5,32.1
					c7.2,0.6,17.3,16.5,5.4,21.7c0,0,28.8-8.6,29.9,17.3c15-20.3,32.1-5.4,32.7,7.1c0,0,44.5-1.8,18.8,42.5
					c35.3-0.1,53.8,47.4,13.5,64.7c29.3-0.1,27.1,35.4,0.1,32.3c11,7.2,6,32.2-11.9,40.2c-17.9,8-34.9-7.9-40.5-14.9
					c-3.6,15.5-22.2,5.3-20.4-4.5c-12.3,13-36-7.3-24-24.2c-25.2,15.6-62-19.7-24.1-48.6c-21.5-5.8-27.6-37.4,3.6-45.5
					c-10.9-5.6,2.6-17.2,9.2-18.5c0,0-21.2-10.3-4.1-27.7C255.1,312,236.5,299.3,248.9,288.9z"/>
				<g>
					
						<linearGradient id="SVGID_1_" gradientUnits="userSpaceOnUse" x1="183.8895" y1="201.4348" x2="255.1177" y2="201.4348" gradientTransform="matrix(0.9653 -0.2611 0.2611 0.9653 -67.8597 70.3885)">
						<stop  offset="0" style="stop-color:#FFC200"/>
						<stop  offset="1" style="stop-color:#FFFF41"/>
					</linearGradient>
					<path class="st9" d="M160.1,186.5c0,0,0.1,20.8,0,22.1s10.4-5.2,10.4-5.2s4.7,18.5,5.8,21.9c0,0,4.6-8.2,7.9-11.8
						c0,0,34.7,27,42.5,31.5c0,0-5.3-51.8-8-54.4c0,0,6.1-0.8,8.5-1.4c2.4-0.6-16-13.5-16-13.5s9.3-4,12.2-6.1l-16.9-10.4
						C206.4,159.3,168.2,180.5,160.1,186.5z"/>
					<path class="st4" d="M167.6,182c0,0,0.1,13.9,0,14.8c-0.1,0.9,6.9-3.5,6.9-3.5s3.1,12.4,3.9,14.7c0,0,3.1-5.5,5.3-7.9
						c0,0,23.2,18.1,28.4,21.1c0,0-3.5-34.7-5.4-36.4c0,0,4.1-0.5,5.7-0.9s-10.7-9-10.7-9s6.2-2.7,8.2-4.1l-11.3-6.9
						C198.7,163.8,173.1,178,167.6,182z"/>
					<path class="st10" d="M147.3,79.4c-9,12.5-21.4,18.4-30.7,21.1c2.7,29.2,37.1,75.7,37.1,75.7c35.4-11.9,44.5-28.3,44.5-28.3
						C174.8,109.5,160.3,87.2,147.3,79.4z"/>
					<path class="st7" d="M152.1,173.1l-0.5,3.2c0,0,6.3,10,6.9,10.9c0,0,39-10.3,49.1-30.6c0,0-6.2-9.9-8.3-10.3
						c-2.1-0.3-2.1-0.3-2.1-0.3S182.3,163.1,152.1,173.1z"/>
					<path class="st5" d="M144.4,163.6c0,0,22.6-6.4,47.3-28l-4.5-8.3c0,0-13.9,13.6-47.4,27.8L144.4,163.6z"/>
					<path class="st11" d="M131.7,82.1c0,0,10.2-5.7,22,6.3c11.8,12,32.2,45.4,39.4,57.2l-3.7,3.4C189.4,149,148.7,74.9,131.7,82.1z
						"/>
				</g>
				<path class="st5" d="M147.3,79.4c-7.9-4.7-19.5-1.9-23.8,1.8c-5.4,4.7-7.7,11-6.9,19.3C126,97.8,138.3,91.9,147.3,79.4z"/>
				<g>
					<path class="st12" d="M80.6,125.1c3.7-3.1,19.1-0.2,28.4,34.5c7.5,28.2-41.2,28.8-41.2,28.8s3-10.5-1.5-13.5
						c0,0,29.2,9.4,34-10.7c0.8-3.5-3.9-17.1-11.1-24.3C81.3,132.1,76.3,128.7,80.6,125.1z"/>
					<g>
						<path class="st13" d="M67.5,187.8c0,0,0.1,0,0.3,0c1.2,0,6.1-0.6,4.5-9.7C72.3,178.1,61.9,182.7,67.5,187.8z"/>
						<path class="st13" d="M71.6,170.4c-1.9,0.3-3.6,1.1-3.1,6.7c0.5,5.6,2.1,5.2,3.8,2.7S74.1,170,71.6,170.4z"/>
						<path class="st14" d="M62,172.5c-5.3,1-9.6,6,1.5,6S74.1,170.2,62,172.5z"/>
						<path class="st14" d="M61.9,177.8c-3.1,0.6-6,1.5-5.7,4c0.2,1.9,2.2,2.2,7.2,2.2c5.4,0,8.1-1.3,8.3-3.6
							C72,178.4,68.7,176.6,61.9,177.8z"/>
						<path class="st14" d="M62.9,183.5c-4.3,0.8-7.8,4.9,1.2,4.9c4.4,0,6.8-1.8,6.8-3.3C70.8,182.5,67.9,182.6,62.9,183.5z"/>
					</g>
				</g>
				<g>
					<path class="st15" d="M118,67.6c0,0,4.1,4,3.2,6s-6.6,0.7-8.1-0.2c0,0,3,3.1,1.1,4c-1.8,0.8-8.1-3.8-8.1-3.8
						S106.4,65.1,118,67.6z"/>
					<path class="st14" d="M42,42.9c0,0,3.9,31.8,4.9,41.1c1,9.3,6.6,24.6,20.4,22c13.8-2.5,35.8-12.1,39-23.5s1.1-18.7,1.1-18.7
						s-2.7-33.4-16.5-40.2S41.8,28.3,42,42.9z"/>
					<path class="st16" d="M53.2,55.2c0,0,0.1,4.5-1.3,5.2s-6,4.6-0.4,5.4c5.5,0.8,8.4-2.6,8.4-2.6s-7.7,2.3-8.8,0.5
						c-1.2-1.7,2.6-1.4,3.3-3.2C55.1,58.8,53.2,55.2,53.2,55.2z"/>
					
						<ellipse transform="matrix(0.9803 -0.1974 0.1974 0.9803 -8.1238 14.3745)" class="st17" cx="68.1" cy="47.9" rx="1.9" ry="3.3"/>
					
						<ellipse transform="matrix(0.9803 -0.1974 0.1974 0.9803 -10.0861 10.7407)" class="st17" cx="48.8" cy="56" rx="1.9" ry="3.3"/>
					<path class="st15" d="M47.2,39.6c0,0,8.7,4.2,10.8,2.9c2.1-1.3-2.2-4-2.2-4s9,2.1,13.8,0.7c4.8-1.4-2.3-4.2-2.3-4.2
						s4.6-0.5,5.4-2.7C73.6,30,53.2,30.9,47.2,39.6z"/>
					<g>
						<path class="st18" d="M50,78.6c0,0,9.2,20.4,21.8,17.9c0.2,0,0.3-0.1,0.5-0.1c-3.9-14.9,10.4-25.2,17-29.1
							c0.2-2.5,0.1-4.1,0.1-4.1C68.4,61,50,78.6,50,78.6z"/>
						<path class="st19" d="M72.3,96.4c13.7-3,16.4-20.9,17-29.1C82.6,71.2,68.3,81.5,72.3,96.4z"/>
					</g>
					<g>
						<path class="st1" d="M45.1,68.2c0,0-0.8-8.2-1.5-14.1c-1.1,0-2.1-0.1-3.1-0.1C41.3,58.4,42.9,63.2,45.1,68.2z"/>
						<path class="st11" d="M111.6,9.3c-2.4-2-5.2-3.7-8.3-5C75.6-7.4,32.1,12.7,40.4,53.9c1,0.1,2,0.1,3.1,0.1
							c-0.3-2.3-0.6-4.2-0.8-5.1c0,0,10.7-18.6,42.1-17.7c0,0,4.1,1.7,8.2,7.9C100.9,32.4,107.6,22.8,111.6,9.3z"/>
						<path class="st20" d="M93,39.1c3.9,5.9,7.8,15.8,8.3,32.3c0,0,17.9,0.3,21.6-3c3.4-3,9.6-41.7-11.4-59
							C107.6,22.8,100.9,32.4,93,39.1z"/>
					</g>
					<path class="st21" d="M109.8,40c-0.2,0-0.4,0.1-0.7,0.2c3-0.1,6.2,3.8,7.4,9.1c1.2,5.3,0,10.2-2.7,11.3c0.2,0,0.5,0,0.7-0.1
						c3.8-0.8,5.8-6,4.5-11.7C117.7,43.1,113.6,39.2,109.8,40z"/>
					<path class="st22" d="M116.5,49.3c-1.2-5.3-4.4-9.2-7.4-9.1c-3.3,1.2-5.1,6.2-3.9,11.5c1.2,5.3,4.9,9.1,8.5,8.9
						C116.5,59.4,117.7,54.6,116.5,49.3z"/>
					<path class="st23" d="M60.9,41.7c0,0,6.9-2.6,13.5,0.8C74.4,42.6,64.3,35.2,60.9,41.7z"/>
					<path class="st23" d="M51.4,46.4c0,0-3.2,0-6.1,7.4C45.3,53.8,45.3,44.4,51.4,46.4z"/>
				</g>
				<g>
					<path class="st24" d="M196.2,315c0,0,2.2,13.6,1.7,20.2c-0.5,6.6,5.8,13.7,10.8,11.7c5-2,9-32.3,9.1-35.9
						c0.1-3.6-11.7-3.9-11.7-3.9S198.1,312.1,196.2,315z"/>
					<path class="st24" d="M211.1,304.6c0,0,6.3,8.1,10.6,15.2s8.8,18.6,15.6,17.6c6.8-1,7.5-5.2,7.5-5.2s-6.8-29.5-9.4-32.8
						s-12.7-4.6-12.7-4.6L211.1,304.6z"/>
					<path class="st12" d="M97,215.1c0,0,48,74.3,97.2,102.9c0,0,15.1,0.7,15.6-15.7c0,0-18.4-13.3-42.5-38.8
						c-24.2-25.6-42.8-50.9-45.9-55.3L97,215.1z"/>
					<path class="st12" d="M102.2,217.3c0,0,15.7,10.2,24.4,15.2c8.7,4.9,69.4,71.4,84.4,77.5c0,0,12.6-1.9,20.6-17.2
						c0,0-49.7-37.4-84.7-90.7C147,202,111.2,205.9,102.2,217.3z"/>
					<path class="st25" d="M109.7,222.1c0,0,11.1,4.7,18.7,11.6c7.6,6.9,58.8,58.7,72.4,68.6c0,0-33.5-27.8-50.9-44.8
						C132.6,240.6,131.2,236.5,109.7,222.1z"/>
				</g>
				<g>
					<path class="st12" d="M113.1,104.1c0,0,8.9-2.4,13.4-2c0,0,9.6,62.6,26.8,98.1c0,0-20.1,5.3-36.6,11c-0.5-0.7-0.9-1-1.8-0.7
						c-7.4,2.7-14.7,7.1-17.8,9.4c0,0-20.7-71.2-15.8-95c0,0,3.4-2.4,6.7-5.5C91.3,116.3,113.1,104.1,113.1,104.1z"/>
					<path class="st26" d="M89.9,117.4c0,0-4.7,11.4-11.4,14.3c0,0,6.1,5.6,13.6,7.2c0,0-8.3,10.3-9.2,12c0,0,13.6,25.4,23.3,43.3
						c0,0-4.8-24.4-6.8-29.3C97.4,160,90.9,122.9,89.9,117.4z"/>
					<path class="st14" d="M100.9,88.5c0,0,6,20.2,6.3,22.1c-5.6,17.5-10.5,12.2-12.8,6.4c-1.6-0.7-4.5-16.1-6.9-20.5
						C93.1,92.4,100.9,88.5,100.9,88.5z"/>
					<path class="st25" d="M106.8,195.6c0-0.4,3,9.6,4.6,13.1C111.4,208.7,106.7,199.1,106.8,195.6z"/>
					
						<ellipse transform="matrix(0.9372 -0.3488 0.3488 0.9372 -62.5521 48.8429)" class="st25" cx="104.4" cy="198.1" rx="0.9" ry="1.2"/>
					
						<ellipse transform="matrix(0.9372 -0.3488 0.3488 0.9372 -64.7694 50.1877)" class="st25" cx="107" cy="205" rx="0.9" ry="1.2"/>
					<path class="st26" d="M115.5,104.5c0,0,5.2,11.4,12.8,14.7c0,0-12.9,13.2-19.1,17.7c0,0,10.2,2.2,19.2,2.8
						c0,0-26.5,37.3-22.3,54.5c0,0-5.9-20.8-6.7-28.2S112.9,110.3,115.5,104.5z"/>
					<path class="st27" d="M101.7,113.4c-0.4,0.7-0.8,1.8-1.2,2.9l-1.7-1.6l0.1,4.9c-0.2,0.6-0.1,1.4-0.2,1.9l-3.2-4.6l-0.4,1.4
						c-0.3-0.3-0.5-0.6-0.7-0.8c-2.9,1.8-4.1,2.7-4.1,2.7c0.6,9.8,8.9,45.8,8.9,45.8c0-14.7,15.1-59.2,15.1-59.2
						C109.3,109.4,105.1,111.6,101.7,113.4z"/>
					<path class="st11" d="M106.8,101.9c0,0-6.8,11.2-8,12.8c0,0,5,5.6,6.4,6.8c0,0,10.5-15.3,10.8-18.1L106.8,101.9z"/>
					<path class="st11" d="M92.2,111.6c0,0,1,3.1,3.4,5.4c0,0,0.4,6.8-0.4,8.4c0,0-4.9-4.8-6.2-6.9L92.2,111.6z"/>
					<path class="st28" d="M103.9,120.5c0,0-8.3,2.9-8.3,3.3c0,0.4,5,6.8,5,6.8s3.6,0.3,3.6-0.5S103.9,120.5,103.9,120.5z"/>
					<path class="st28" d="M100.5,130.6c0,0,1.6,14.2-12.3,30.2C80.1,170,72.1,196,84,209.6c0,0,13.1,5.1,15.6,4.1
						c0,0,3.3-10.7,3.7-13.9c0,0-18.1-17-6.6-35.6c13.5-21.8,7.5-33.9,7.5-33.9L100.5,130.6z"/>
					<path class="st29" d="M98.8,114.7c0,0-0.1,5.8-0.1,6.8c0,0-2.4-3.7-3.2-4.5c0,0,2.7,4.6,3.4,5.4C99,122.4,99.2,119,98.8,114.7z
						"/>
					<path class="st25" d="M103.3,215.2c-0.3,0.2,8.2-4.6,9.8-5.1l1.2,0.5c0,0,15.6-4.8,22.9-5.9c0,0-13.6,2.7-22.6,7l-1.5-0.7
						C113.1,210.9,105.5,213.7,103.3,215.2z"/>
				</g>
				<g>
					<path class="st12" d="M116,103.4c0,0,44.7-16.4,62.3,11.6c23.6,37.5-45.8,62.4-45.8,62.4s0.6-15.3-5.3-17.5
						c0,0,51.8-10,41.1-36.1c-6.6-16-32.4-11.7-39-9.7C122.7,116,116.7,106.9,116,103.4z"/>
					<g>
						<path class="st1" d="M130.9,184.9c1.7,6,4,7.5,4,7.5c2.3,0.2,24.8-17.4,37.5-31.2c2.1-2.3,3.2-7.6,4.5-9.6c0,0,4-1.4,5.9,1.1
							c0.7,0.9,1.1,2-0.1,5.2c0,0-33.6,32.4-50.6,42.8c-2.7,1.7-6.1,1.5-8,1.7c-2-1.3-7-13-7-13S126.9,185.1,130.9,184.9z"/>
						<path class="st2" d="M109.9,154.6c0,0,9.1,28,9.6,30.7s7.5,0.4,9.3-1.3s-4.4-30-5.2-32.3C123.6,151.7,116,151.1,109.9,154.6z"
							/>
						<path class="st3" d="M115.6,184c0,0,13.8-3.8,16.2-3c0,0,1.8,5.3,1,7.5c-0.8,2.2-14.2,3.2-15.5,2.8
							C116,191,115.3,187.5,115.6,184z"/>
					</g>
					<path class="st14" d="M131.2,159.3c0,0-2.6-2.3-6.9-5.2c0.7,3.8,0.7,6.1,0.7,6.1s-13.9-0.2-14.3,2.5c-0.3,2.7,2.5,5.9,2.5,5.9
						s-3.1,1.9-1.8,4.5c1.4,2.5,2.3,3.6,2.3,3.6s-1.5,3.3,2.1,3.6s14.6-0.7,16.6-3C134.4,175.1,134.6,164.9,131.2,159.3z"/>
				</g>
			</g>
			
				<image style="overflow:visible;" width="69" height="65" xlink:href="7AACC4CD.png"  transform="matrix(0.2292 -7.009102e-02 3.695631e-04 0.2394 47 21.8363)">
			</image>
		</g>
	</g>
</g>
</svg>
